<svg xmlns="http://www.w3.org/2000/svg" viewBox="0 0 203.36 21.31"><defs><style>.cls-1{fill:#fff;}</style></defs><title>white-logo</title><g id="Layer_2" data-name="Layer 2"><g id="Layer_1-2" data-name="Layer 1"><path class="cls-1" d="M0,10.7C0,4,4.72,0,11.49,0a13,13,0,0,1,7.36,1.8V5.27a12,12,0,0,0-6.94-1.88c-4.39,0-7.65,2.33-7.65,7.31S7.56,18,11.83,18a12.8,12.8,0,0,0,7.27-2v3.43c-2,1.34-4.35,1.92-7.69,1.92C4.72,21.31,0,17.47,0,10.7Z"/><path class="cls-1" d="M25.91,10.7C25.91,4.22,30.51,0,37.32,0S48.77,4.22,48.77,10.7,44.13,21.31,37.32,21.31,25.91,17.3,25.91,10.7Zm18.52,0c0-4.56-2.76-7.31-7.11-7.31s-7.1,2.75-7.1,7.31C30.22,15,33,18,37.32,18S44.43,15,44.43,10.7Z"/><path class="cls-1" d="M54.89,10.7C54.89,4.26,58.65,0,65.76,0S76.54,4.43,76.54,10.24v2.09H58.9c.3,3.93,3.52,5.64,8.36,5.64a21.08,21.08,0,0,0,7.36-1.3v3.39a24,24,0,0,1-7.86,1.25C59.41,21.31,54.89,17.47,54.89,10.7ZM72.57,9.36c-.13-3.72-2.47-6-6.9-6S59,5.85,58.9,9.36Z"/><path class="cls-1" d="M82.57.63H87L92.93,15,98.82.63h4.48L94.77,20.68H91.09Z"/><path class="cls-1" d="M107.56,10.7C107.56,4.22,112.16,0,119,0s11.45,4.22,11.45,10.7S125.78,21.31,119,21.31,107.56,17.3,107.56,10.7Zm18.51,0c0-4.56-2.75-7.31-7.1-7.31s-7.1,2.75-7.1,7.31c0,4.34,2.75,7.27,7.1,7.27S126.07,15,126.07,10.7Z"/><path class="cls-1" d="M156.11.63h4.47L166.47,15,172.37.63h4.47l-8.53,20.05h-3.67Z"/><path class="cls-1" d="M181.71,10.7c0-6.44,3.76-10.7,10.86-10.7s10.79,4.43,10.79,10.24v2.09H185.72c.29,3.93,3.51,5.64,8.36,5.64a21,21,0,0,0,7.35-1.3v3.39a23.92,23.92,0,0,1-7.85,1.25C186.22,21.31,181.71,17.47,181.71,10.7Zm17.68-1.34c-.13-3.72-2.47-6-6.9-6s-6.68,2.46-6.77,6Z"/><polygon class="cls-1" points="152.91 17.72 152.91 20.68 138.34 20.68 138.34 0.57 142.56 0.57 142.56 17.72 152.91 17.72"/></g></g></svg>